<svg xmlns="http://www.w3.org/2000/svg" viewBox="0 0 180 180" width="512" height="512">
  <defs>
    <linearGradient id="frameBg" x1="0" y1="0" x2="1" y2="1">
      <stop offset="0" stop-color="#12151f"/>
      <stop offset="1" stop-color="#05070d"/>
    </linearGradient>
    <radialGradient id="frameTint1" cx="0.3" cy="0.15" r="0.55">
      <stop offset="0" stop-color="#5a5082" stop-opacity="0.38"/>
      <stop offset="1" stop-color="#5a5082" stop-opacity="0"/>
    </radialGradient>
    <radialGradient id="frameTint2" cx="0.7" cy="0.85" r="0.55">
      <stop offset="0" stop-color="#ff6b35" stop-opacity="0.10"/>
      <stop offset="1" stop-color="#ff6b35" stop-opacity="0"/>
    </radialGradient>

    <linearGradient id="glassV4" x1="0.3" y1="0.05" x2="0.7" y2="0.95">
      <stop offset="0" stop-color="#ffa96a"/>
      <stop offset="0.55" stop-color="#e8713b"/>
      <stop offset="1" stop-color="#b04418"/>
    </linearGradient>
    <radialGradient id="glossV4" cx="0.28" cy="0.18" r="0.38">
      <stop offset="0" stop-color="#ffffff" stop-opacity="0.55"/>
      <stop offset="1" stop-color="#ffffff" stop-opacity="0"/>
    </radialGradient>
    <radialGradient id="haloV4" cx="0.5" cy="0.55" r="0.55">
      <stop offset="0" stop-color="#ffb870" stop-opacity="0.55"/>
      <stop offset="0.55" stop-color="#ff6b35" stop-opacity="0.18"/>
      <stop offset="1" stop-color="#ff6b35" stop-opacity="0"/>
    </radialGradient>

    <clipPath id="frameClip">
      <rect x="0" y="0" width="180" height="180" rx="36" ry="36"/>
    </clipPath>

    <symbol id="mascot" viewBox="0 0 180 180">
      <path d="M 45 50
               L 135 50
               L 135 68
               L 143 68
               L 143 86
               L 135 86
               L 135 112
               L 125 112
               L 125 128
               L 115 128
               L 115 112
               L 105 112
               L 105 128
               L 95 128
               L 95 112
               L 85 112
               L 85 128
               L 75 128
               L 75 112
               L 65 112
               L 65 128
               L 55 128
               L 55 112
               L 45 112
               L 45 86
               L 37 86
               L 37 68
               L 45 68
               Z"/>
    </symbol>
  </defs>

  <g clip-path="url(#frameClip)">
    <rect x="0" y="0" width="180" height="180" fill="url(#frameBg)"/>
    <rect x="0" y="0" width="180" height="180" fill="url(#frameTint1)"/>
    <rect x="0" y="0" width="180" height="180" fill="url(#frameTint2)"/>

    <circle cx="90" cy="90" r="78" fill="url(#haloV4)"/>

    <use href="#mascot" fill="url(#glassV4)" stroke="#ffffff" stroke-width="3" stroke-linejoin="miter"/>
    <use href="#mascot" fill="url(#glossV4)"/>

    <rect x="62" y="66" width="14" height="14" fill="#1a0f08"/>
    <rect x="104" y="66" width="14" height="14" fill="#1a0f08"/>
    <rect x="64" y="68" width="3" height="3" fill="#ffffff" opacity="0.7"/>
    <rect x="106" y="68" width="3" height="3" fill="#ffffff" opacity="0.7"/>

    <circle cx="26" cy="44" r="1.4" fill="#ffd166" opacity="0.8"/>
    <circle cx="157" cy="36" r="1.2" fill="#ffb870" opacity="0.7"/>
    <circle cx="162" cy="128" r="1.4" fill="#ffd166" opacity="0.75"/>
    <circle cx="18" cy="138" r="1" fill="#ffb870" opacity="0.6"/>
  </g>
</svg>
